<?xml version="1.0" encoding="UTF-8"?>
<!-- Do not edit this file with editors other than draw.io -->
<!DOCTYPE svg PUBLIC "-//W3C//DTD SVG 1.1//EN" "http://www.w3.org/Graphics/SVG/1.1/DTD/svg11.dtd">
<svg xmlns="http://www.w3.org/2000/svg" style="background: transparent; background-color: transparent; color-scheme: light dark;" xmlns:xlink="http://www.w3.org/1999/xlink" version="1.1" width="1080px" height="720px" viewBox="0 0 1080 720" content="&lt;mxfile host=&quot;app.diagrams.net&quot; agent=&quot;Mozilla/5.0 (Windows NT 10.0; Win64; x64) AppleWebKit/537.36 (KHTML, like Gecko) Chrome/144.0.0.0 Safari/537.36 Edg/144.0.0.0&quot; version=&quot;29.3.4&quot;&gt;&#10;  &lt;diagram name=&quot;第 1 页&quot; id=&quot;_vu8KLfkpfQYSI1skqAb&quot;&gt;&#10;    &lt;mxGraphModel dx=&quot;1205&quot; dy=&quot;773&quot; grid=&quot;1&quot; gridSize=&quot;10&quot; guides=&quot;1&quot; tooltips=&quot;1&quot; connect=&quot;1&quot; arrows=&quot;1&quot; fold=&quot;1&quot; page=&quot;1&quot; pageScale=&quot;1&quot; pageWidth=&quot;827&quot; pageHeight=&quot;1169&quot; math=&quot;0&quot; shadow=&quot;0&quot;&gt;&#10;      &lt;root&gt;&#10;        &lt;mxCell id=&quot;0&quot; /&gt;&#10;        &lt;mxCell id=&quot;1&quot; parent=&quot;0&quot; /&gt;&#10;        &lt;mxCell id=&quot;ffOg8oNjBDyvKN3Crcdg-47&quot; parent=&quot;1&quot; style=&quot;rounded=0;whiteSpace=wrap;html=1;fillColor=light-dark(#A00020,#A00020);movable=1;resizable=1;rotatable=1;deletable=1;editable=1;locked=0;connectable=1;fillStyle=auto;strokeWidth=10;strokeColor=none;&quot; value=&quot;&quot; vertex=&quot;1&quot;&gt;&#10;          &lt;mxGeometry height=&quot;560&quot; width=&quot;1080&quot; y=&quot;80&quot; as=&quot;geometry&quot; /&gt;&#10;        &lt;/mxCell&gt;&#10;        &lt;mxCell id=&quot;ffOg8oNjBDyvKN3Crcdg-1&quot; parent=&quot;1&quot; style=&quot;verticalLabelPosition=bottom;verticalAlign=top;html=1;shape=mxgraph.basic.polygon;polyCoords=[[0.15,0.16],[0.15,0.12],[0.23,0.12],[0.23,0.08],[0.31,0.08],[0.31,0.04],[0.38,0.04],[0.38,0],[0.46,0],[0.46,0.04],[0.54,0.04],[0.54,0.24],[0.62,0.24],[0.62,0.2],[0.69,0.2],[0.69,0.16],[0.77,0.16],[0.77,0.2],[0.85,0.2],[0.85,0.24],[0.92,0.24],[0.92,0.28],[1,0.28],[1,0.76],[0.92,0.76],[0.92,0.8],[0.85,0.8],[0.85,0.84],[0.77,0.84],[0.77,0.92],[0.85,0.92],[0.85,1],[0.77,1],[0.77,0.96],[0.69,0.96],[0.69,0.92],[0.62,0.92],[0.62,0.96],[0.54,0.96],[0.54,0.92],[0.46,0.92],[0.46,0.96],[0.38,0.96],[0.38,1],[0.31,1],[0.31,0.92],[0.38,0.92],[0.38,0.88],[0.46,0.88],[0.46,0.8],[0.38,0.8],[0.38,0.76],[0.31,0.76],[0.31,0.8],[0.23,0.8],[0.23,0.84],[0.15,0.84],[0.15,0.8],[0.08,0.8],[0.08,0.76],[0,0.76],[0,0.68],[0.08,0.68],[0.08,0.72],[0.15,0.72],[0.15,0.76],[0.23,0.76],[0.23,0.72],[0.31,0.72],[0.31,0.68],[0.38,0.68],[0.38,0.72],[0.46,0.72],[0.46,0.76],[0.54,0.76],[0.54,0.8],[0.62,0.8],[0.62,0.76],[0.69,0.76],[0.69,0.72],[0.77,0.72],[0.77,0.68],[0.85,0.68],[0.85,0.36],[0.77,0.36],[0.77,0.32],[0.69,0.32],[0.69,0.36],[0.62,0.36],[0.62,0.44],[0.69,0.44],[0.69,0.52],[0.62,0.52],[0.62,0.48],[0.54,0.48],[0.54,0.44],[0.46,0.44],[0.46,0.48],[0.38,0.48],[0.38,0.44],[0.31,0.44],[0.31,0.4],[0.23,0.4],[0.23,0.44],[0.15,0.44],[0.15,0.36],[0.23,0.36],[0.23,0.32],[0.31,0.32],[0.31,0.28],[0.38,0.28],[0.38,0.2],[0.31,0.2],[0.31,0.16],[0.23,0.16],[0.23,0.2],[0.15,0.2],[0.15,0.16]];polyline=0;strokeColor=none;fillColor=light-dark(#1A1A1A,#1A1A1A);gradientColor=none;fillStyle=auto;strokeWidth=1;rotation=0;&quot; value=&quot;&quot; vertex=&quot;1&quot;&gt;&#10;          &lt;mxGeometry height=&quot;500&quot; width=&quot;520&quot; x=&quot;260&quot; y=&quot;100&quot; as=&quot;geometry&quot; /&gt;&#10;        &lt;/mxCell&gt;&#10;        &lt;mxCell id=&quot;tq4PBL1rzoO6pZkZvOiM-1&quot; parent=&quot;1&quot; style=&quot;rounded=0;whiteSpace=wrap;html=1;fillColor=light-dark(#1A1A1A,#1A1A1A);strokeColor=none;&quot; value=&quot;&quot; vertex=&quot;1&quot;&gt;&#10;          &lt;mxGeometry height=&quot;60&quot; width=&quot;1080&quot; as=&quot;geometry&quot; /&gt;&#10;        &lt;/mxCell&gt;&#10;        &lt;mxCell id=&quot;tq4PBL1rzoO6pZkZvOiM-2&quot; parent=&quot;1&quot; style=&quot;rounded=0;whiteSpace=wrap;html=1;fillColor=light-dark(#1A1A1A,#1A1A1A);strokeColor=none;&quot; value=&quot;&quot; vertex=&quot;1&quot;&gt;&#10;          &lt;mxGeometry height=&quot;60&quot; width=&quot;1080&quot; y=&quot;660&quot; as=&quot;geometry&quot; /&gt;&#10;        &lt;/mxCell&gt;&#10;      &lt;/root&gt;&#10;    &lt;/mxGraphModel&gt;&#10;  &lt;/diagram&gt;&#10;&lt;/mxfile&gt;&#10;"><defs/><g><g data-cell-id="0"><g data-cell-id="1"><g data-cell-id="ffOg8oNjBDyvKN3Crcdg-47"><g><rect x="0" y="80" width="1080" height="560" fill="#a00020" stroke="none" pointer-events="all" style="fill: rgb(160, 0, 32);"/></g></g><g data-cell-id="ffOg8oNjBDyvKN3Crcdg-1"><g transform="translate(0.5,0.5)"><path d="M 338 180 L 338 160 L 379.6 160 L 379.6 140 L 421.2 140 L 421.2 120 L 457.6 120 L 457.6 100 L 499.2 100 L 499.2 120 L 540.8 120 L 540.8 220 L 582.4 220 L 582.4 200 L 618.8 200 L 618.8 180 L 660.4 180 L 660.4 200 L 702 200 L 702 220 L 738.4 220 L 738.4 240 L 780 240 L 780 480 L 738.4 480 L 738.4 500 L 702 500 L 702 520 L 660.4 520 L 660.4 560 L 702 560 L 702 600 L 660.4 600 L 660.4 580 L 618.8 580 L 618.8 560 L 582.4 560 L 582.4 580 L 540.8 580 L 540.8 560 L 499.2 560 L 499.2 580 L 457.6 580 L 457.6 600 L 421.2 600 L 421.2 560 L 457.6 560 L 457.6 540 L 499.2 540 L 499.2 500 L 457.6 500 L 457.6 480 L 421.2 480 L 421.2 500 L 379.6 500 L 379.6 520 L 338 520 L 338 500 L 301.6 500 L 301.6 480 L 260 480 L 260 440 L 301.6 440 L 301.6 460 L 338 460 L 338 480 L 379.6 480 L 379.6 460 L 421.2 460 L 421.2 440 L 457.6 440 L 457.6 460 L 499.2 460 L 499.2 480 L 540.8 480 L 540.8 500 L 582.4 500 L 582.4 480 L 618.8 480 L 618.8 460 L 660.4 460 L 660.4 440 L 702 440 L 702 280 L 660.4 280 L 660.4 260 L 618.8 260 L 618.8 280 L 582.4 280 L 582.4 320 L 618.8 320 L 618.8 360 L 582.4 360 L 582.4 340 L 540.8 340 L 540.8 320 L 499.2 320 L 499.2 340 L 457.6 340 L 457.6 320 L 421.2 320 L 421.2 300 L 379.6 300 L 379.6 320 L 338 320 L 338 280 L 379.6 280 L 379.6 260 L 421.2 260 L 421.2 240 L 457.6 240 L 457.6 200 L 421.2 200 L 421.2 180 L 379.6 180 L 379.6 200 L 338 200 L 338 180 Z" fill="#1a1a1a" stroke="none" pointer-events="all" style="fill: rgb(26, 26, 26);"/></g></g><g data-cell-id="tq4PBL1rzoO6pZkZvOiM-1"><g transform="translate(0.5,0.5)"><rect x="0" y="0" width="1080" height="60" fill="#1a1a1a" stroke="none" pointer-events="all" style="fill: rgb(26, 26, 26);"/></g></g><g data-cell-id="tq4PBL1rzoO6pZkZvOiM-2"><g transform="translate(0.5,0.5)"><rect x="0" y="660" width="1080" height="60" fill="#1a1a1a" stroke="none" pointer-events="all" style="fill: rgb(26, 26, 26);"/></g></g></g></g></g></svg>