<?xml version="1.0" encoding="UTF-8"?>
<svg id="_图层_1" data-name="图层 1" xmlns="http://www.w3.org/2000/svg" viewBox="0 0 1417.34 566.95">
  <defs>
    <style>
      .cls-1 {
        fill: #fff;
      }
    </style>
  </defs>
  <path class="cls-1" d="m85.44,386.65c0-3.5.3-7.4-1.1-10.6-2-4.4-4.9-7.9-11.2-3.1-12.5,9.6-22,21.6-32.8,32.6-6.2,6.3-11.8,13.1-18.1,19.3-5.1,5-11.3,6.5-17.3,1.4-5.4-4.6-7-9.8-1.6-15.9,16.6-18.9,32.9-38,49.4-57,49.5-56.9,94.3-116.7,131.9-181,4.1-7.1,2.4-9.7-5.7-10.4-5.4-.4-10.7-1.2-16-2.1-10.4-1.9-16.6-7.3-18.6-17.4-4-20.3,1.6-39.5,7.1-58.7,1.2-4.1,2.3-8.2,3.5-12.3,1.1-3.7,1.3-8.6,7.4-7.5,5.1.9,4.5,5.5,4.3,8.8-1.3,16.7-2.9,33.4-4.5,50.1-.3,3.2-1,6.4-.7,9.6.9,10.2,7.7,13.3,17.9,9.5,22.7-8.4,42.8-20.2,59.6-36.7,5.9-5.8,13.9-8.8,21-13,2.3-1.4,5.2-1.8,7.7-.4,3.2,1.9,2.5,5.1,1.7,7.8-2.2,7.4-7.2,13.5-12.6,18.8-30.8,30.3-58.9,62.5-84.6,96.5-17.6,23.2-89.7,122.2-91.6,125.7-3,5.5-3.7,10.7,3.1,14.9,15,9.4,19.6,23.1,19.4,39.4-.4,30.7,0,61.4.1,92,0,3.1-1.4,7.1,3.3,8,4.1.8,6.3-2.6,7.3-5.6,16.9-48.1,50.6-86.2,85-124,16.3-17.9,31.9-36.2,47.5-54.7,6.2-7.3,9.1-16.4,11.7-25.1,8.8-29,17.1-58,25.5-87.1,1.2-4.2,4.2-7.4,8.1-8.3,4.9-1.1,7.2,2.9,8.9,6.7,1.5,3.3,4,17.9,21.6,17.5,8.3-.2,18.5-2.1,22.7,6.3,4.7,9.4-3.5,15.8-10.4,21.7-20.1,17.1-38.3,35.6-55.7,55.1-13.2,14.7-19.2,31.9-25.4,49.3-3.9,10.9-5.6,22.1-6,33.5-.3,8.1,2.7,11.7,11.7,7.4,24.8-11.8,44.6-27.2,48.2-55.1,1-8.1,4-15.9,4.5-24.2.2-4.4,3.1-8,7.6-8.4,13.4-1.1,27-2.4,38.4,6.7,6.5,5.1,7.2,10.6,1.5,16.5-6.7,6.8-13.4,13.7-20.4,20.2-9.2,8.5-11.9,19.7-14.9,30.7-1.9,6.6,1.9,12.8,7.3,15.8,31.7,17.8,25.9,43.6,13.1,70.1-6.5,13.5-23.1,39.6-19.9,43,2.9,3.2,7.2,1.5,10.9,1.1,15.6-1.5,30.7-6.1,46.6-6.8,13.8-.6,26.7,1.8,39.4,6.1,3.5,1.2,6.1,3.1,5.7,7-.5,4.9-4.5,5.2-8.4,5.4-14.6.9-29.2-3.2-43.8-1.2-23.9,3.4-46.5,11.4-69.7,17.5-8,2.1-15.7,1.3-20.1-3.9-4.8-5.7,1.4-10.8,5.5-15.8,20.4-24.7,35.5-52.1,47.4-81.1,2.4-5.8,2.1-11.9-.6-17.7-1.3-2.8-2.2-7-6.5-6.5-4.5.6-4,5-3.7,7.9,1.1,10.3-.8,19.4-7.3,28.2-4.8,6.5-9.4,7.6-16.2,3.7-1.3-.8-2.7-1.4-4-2.1-15.7-9.5-22.4-8.7-3.8-23.9,7.2-5.9,12.5-26.7,8.5-33.7-3.3-5.7-7.7-2.4-11.2.4-9.3,7.4-19.2,14.1-29.8,19.8-8.4,4.5-17.2,6.6-25.7.3-8.4-6.3-9.9-15.3-8.8-24.2,2.7-21.9,11.1-27,5-30.6-3.8-2.2-7.2.4-9.6,3.6-24.9,33.4-57.8,61.5-77.2,98.7-8.6,16.6-15.2,33.9-20.8,51.6-5.5,17.6-11.7,35-17.6,52.5-1.4,4-3.7,6.9-8.6,7.6-5.1.7-7.8-2.4-10.4-5.5-4.2-5.1-4.8-11.1-4.8-17.3,0-26.5.7-131.4.7-157.4Zm196.8-131.6c-.4,3.7-.6,6.5,2.5,7.5,3,1,4.9-1.4,6.7-3.2,7.8-7.7,15.5-15.3,23-23.2,3.3-3.4,5.3-8-.2-10.7-4.5-2.2-8.6-9.8-15.4-2.3-8.7,9.7-13.6,21-16.6,31.9Zm46.7,70.6c5.5-2.8,8.5-7.6,10.3-13,.7-2-.3-4.8-3.1-4.6-8.4.5-7.8,7.3-9.5,12.5-.7,2-.9,4.1,2.3,5.1Z"/>
  <path class="cls-1" d="m1384.04,305.85c-6,20.3-20.1,37.2-30.6,55.6-12.5,21.8-25.9,43.2-39.2,64.7-2.1,3.4-3.5,6.5-.4,9.7,2.9,2.9,5.9,1,9.4.2,24.2-5.5,48.3-10.7,72.7-15.6,9.1-1.8,19.6,6.4,21.1,15.7,1.7,10.3-3.7,17.3-15.1,19-3.4.5-7.1.7-10.3-.1-28.1-7.6-53.7,1.5-79.7,9.1-8.5,2.5-17.6,4.2-25.7,0-8-4.1-10.7-10.6-5.4-19,16.9-26.9,33.5-54,50.1-81,12.6-20.6,25-41.4,31.8-64.4,1.3-4.5,1.9-9.2.2-13.7-2-5.5-6.8-7.5-12.7-7-5.8.6-5.8,4.9-5.8,8.9-.3,22.7-8.1,42.9-22.3,61.4-10,13-32.7,18.1-47.2,9.8-9.3-5.3-12.1-15.5-6.2-23.9,14.1-20.3,28.3-40.6,50.4-54.6,2.8-1.8,4.3-3.7,4.2-6.9-.7-19.2-19.7-32.8-40.5-28.9-6.8,1.3-13.6,2-20.7,1-11.8-1.8-16.2-8.7-11.5-19,7.6-16.6,22.2-28.7,32.8-43.4,10.8-15,22.6-29.3,33.2-44.4,4.3-6.2,7.2-13.1,1.2-20.9-4.4-5.6-2.4-12.7.4-18.5,5.2-10.7,13.8-6,21.3-2.8,15.4,6.5,18.7,18,9,30.3-23,29.1-46.1,58.2-69.3,87.2-6.1,7.6-5.1,9.5,4.9,12.8,14,4.6,27.8,9.8,41.7,14.9,6.8,2.5,12.4,7.6,13.5,13.6,5.2,29,63.1-12,44.7,50.2Zm-97.7,29.3c-.1,3.5.4,6.6,4.3,8,4,1.4,7.2.1,10.2-2.7,9.2-8.8,14-19.8,18.8-30.9,2.5-5.8,7.2-14,1.8-17.6-8.3-5.4-34.6,28.9-35.1,43.2Z"/>
  <path class="cls-1" d="m1079.04,400.05c-2.2-12.3-5.8-24.2-10-35.9-2-5.6-7.8-7.6-12.7-10.2-8.3-4.4-17-8.1-25.5-12.2-12.9-6.1-21.3-19.5-9.8-33.4,22.3-27,45-53.6,67.2-80.7,12.3-15,23.6-30.8,30.1-48.7,4.8-13.4,2.5-27.3-1.2-41-3.5-12.7,4.2-21.7,15.9-18.3,8.2,2.4,13.6,8.6,15.5,16.8,4.3,18.4-2.8,34.5-13.5,49.1-28.1,38.4-56.8,76.3-85.3,114.4-.7.9-12.4,21.9,7.4,27,21.6,5.5,36.5,24.8,40.2,45.6,5.9,32.9,5.5,100.4,4.4,110.6-.6,5.6-1.8,11.3-9.5,11.1-8.1-.2-12.6-5.2-13.3-12.4-4.5-44.5,4.1-59.5.1-81.8Z"/>
  <path class="cls-1" d="m841.44,312.15c24.9-4.2,49.8-2.9,74.7-.3,4.3.4,7.5,1.8,8.2,6,.9,6.3-.4,11.9-5.5,16.6-3.6,3.3-6.7,1.9-10.3.1-23.5-11.3-47.8-9.4-72.9-5-26,4.5-51.2,11.4-76.4,18.3-14,3.8-28,7.5-41.6,12.2-6.4,2.2-9.9.5-12.1-4.1-2.8-6.1,2-10.7,7.1-11.1,17.5-1.5,32.5-10.2,49.3-13.6,11.4-2.3,16.8-8.7,19-19.7,5.1-25.8,22.6-72.2,15.5-78.1-5.8-4.9-19.5,8.5-29.4,7.1-5.8-.8-12-2.3-14.1-7.9-2.4-6.6,4.6-8.2,9-10.5,16.3-8.5,32.8-16.6,49-25.1,6-3.1,13.3-5.6,18.4-2,5.8,4.1,1.8,11.3.4,17-6.8,28.6-17,56.3-25.2,84.6-8.2,28.7,22.1,18,36.9,15.5Z"/>
  <path class="cls-1" d="m576.94,446.85c.2-13.1,4.3-25.5,8.5-37.4,5.8-16.7.3-30.8-6.7-44.9-4.4-9-10.4-17.2-16.5-25.5-5.8-7.9-9.8-17-8.5-27.1,2.2-16.5,4.4-33.1,6.4-49.6.6-4.8,3-8.1,7.9-9.5,3.8-1.1,7.4.1,10.6,2.6,4.5,3.5,3.5,8.2,2.1,11.8-5.8,15-8.4,30.8-13.2,46-1.8,5.9,1.1,9.9,3.2,14,8,15.5,19.2,29.5,26.4,45.5,2.2,5,6.8,5.6,10.1-.1,2.4-4,4.7-8.1,7.5-12,1.4-1.8,3-4.9,6.3-3.3,2.9,1.4,2.5,4.5,1.7,6.7-3.4,9.1-5.5,18.4-7.6,27.8-4.5,20.1-11.7,39.4-22.6,57.4-2.3,3.8-3.7,9.6-10.3,8-5.2-1.4-5.9-5.9-5.3-10.4Z"/>
  <path class="cls-1" d="m226.34,49.15c.2-14.7,3.2-29.6-7.3-42.9-2.9-3.7-.4-7,5-6.1,22.2,3.8,26.4,7.6,24.3,26.7-1.6,14.3-8.7,26.8-13.8,40-1,2.7-3,4.5-5.9,4.1-3.7-.4-3.1-3.5-3-5.9.1-5.3.4-10.6.7-15.9Z"/>
  <path class="cls-1" d="m625.14,117.85c7.4,1.2,10.6,7.1,7.5,14.8-5.6,13.8-19.6,17.7-31.9,22-7.6,2.6-8.5-6.1-5.3-9.8,9.4-10.8,4-17.9-4.9-25-2.2-1.8-3.6-3.9-1.8-6.5,1.5-2,26.3,2.9,36.4,4.5Z"/>
</svg>